HIERARCHY
ROOT Hips
{
	OFFSET 0.000000 0.000000 0.000000
	CHANNELS 6 Xposition Yposition Zposition Zrotation Yrotation Xrotation 
	JOINT LHipJoint
	{
		OFFSET 0.000000 0.000000 0.000000
		CHANNELS 3 Zrotation Yrotation Xrotation
		JOINT LeftUpLeg
		{
			OFFSET 1.363060 -1.794630 0.839290
			CHANNELS 3 Zrotation Yrotation Xrotation
			JOINT LeftLeg
			{
				OFFSET 2.448110 -6.726130 0.000000
				CHANNELS 3 Zrotation Yrotation Xrotation
				JOINT LeftFoot
				{
					OFFSET 2.562200 -7.039590 0.000000
					CHANNELS 3 Zrotation Yrotation Xrotation
					JOINT LeftToeBase
					{
						OFFSET 0.157640 -0.433110 2.322550
						CHANNELS 3 Zrotation Yrotation Xrotation
						End Site
						{
							OFFSET 0.000000 0.000000 0.000000
						}
					}
				}
			}
		}
	}
	JOINT RHipJoint
	{
		OFFSET 0.000000 0.000000 0.000000
		CHANNELS 3 Zrotation Yrotation Xrotation
		JOINT RightUpLeg
		{
			OFFSET -1.305520 -1.794630 0.839290
			CHANNELS 3 Zrotation Yrotation Xrotation
			JOINT RightLeg
			{
				OFFSET -2.542530 -6.985550 0.000000
				CHANNELS 3 Zrotation Yrotation Xrotation
				JOINT RightFoot
				{
					OFFSET -2.568260 -7.056230 0.000000
					CHANNELS 3 Zrotation Yrotation Xrotation
					JOINT RightToeBase
					{
						OFFSET -0.164730 -0.452590 2.363150
						CHANNELS 3 Zrotation Yrotation Xrotation
						End Site
						{
							OFFSET 0.000000 0.000000 0.000000
						}
					}
				}
			}
		}
	}
	JOINT LowerBack
	{
		OFFSET 0.000000 0.000000 0.000000
		CHANNELS 3 Zrotation Yrotation Xrotation
		JOINT Spine
		{
			OFFSET 0.028270 2.035590 -0.193380
			CHANNELS 3 Zrotation Yrotation Xrotation
			JOINT Spine1
			{
				OFFSET 0.056720 2.048850 -0.042750
				CHANNELS 3 Zrotation Yrotation Xrotation
				JOINT Neck
				{
					OFFSET 0.000000 0.000000 0.000000
					CHANNELS 3 Zrotation Yrotation Xrotation
					JOINT Neck1
					{
						OFFSET -0.054170 1.746240 0.172020
						CHANNELS 3 Zrotation Yrotation Xrotation
						JOINT Head
						{
							OFFSET 0.104070 1.761360 -0.123970
							CHANNELS 3 Zrotation Yrotation Xrotation
							End Site
							{
								OFFSET 0.000000 0.000000 0.000000
							}
						}
					}
				}
				JOINT LeftShoulder
				{
					OFFSET 0.000000 0.000000 0.000000
					CHANNELS 3 Zrotation Yrotation Xrotation
					JOINT LeftArm
					{
						OFFSET 3.362410 1.200890 -0.311210
						CHANNELS 3 Zrotation Yrotation Xrotation
						JOINT LeftForeArm
						{
							OFFSET 4.983000 -0.000000 -0.000000
							CHANNELS 3 Zrotation Yrotation Xrotation
							JOINT LeftHand
							{
								OFFSET 3.483560 -0.000000 -0.000000
								CHANNELS 3 Zrotation Yrotation Xrotation
								JOINT LeftFingerBase
								{
									OFFSET 0.000000 0.000000 0.000000
									CHANNELS 3 Zrotation Yrotation Xrotation
									JOINT LeftHandIndex1
									{
										OFFSET 0.715260 -0.000000 -0.000000
										CHANNELS 3 Zrotation Yrotation Xrotation
										End Site
										{
											OFFSET 0.000000 0.000000 0.000000
										}
									}
								}
								JOINT LThumb
								{
									OFFSET 0.000000 0.000000 0.000000
									CHANNELS 3 Zrotation Yrotation Xrotation
									End Site
									{
										OFFSET 0.000000 0.000000 0.000000
									}
								}
							}
						}
					}
				}
				JOINT RightShoulder
				{
					OFFSET 0.000000 0.000000 0.000000
					CHANNELS 3 Zrotation Yrotation Xrotation
					JOINT RightArm
					{
						OFFSET -3.136600 1.374050 -0.404650
						CHANNELS 3 Zrotation Yrotation Xrotation
						JOINT RightForeArm
						{
							OFFSET -5.241900 -0.000000 -0.000000
							CHANNELS 3 Zrotation Yrotation Xrotation
							JOINT RightHand
							{
								OFFSET -3.444170 -0.000000 -0.000000
								CHANNELS 3 Zrotation Yrotation Xrotation
								JOINT RightFingerBase
								{
									OFFSET 0.000000 0.000000 0.000000
									CHANNELS 3 Zrotation Yrotation Xrotation
									JOINT RightHandIndex1
									{
										OFFSET -0.622530 -0.000000 -0.000000
										CHANNELS 3 Zrotation Yrotation Xrotation
										End Site
										{
											OFFSET 0.000000 0.000000 0.000000
										}
									}
								}
								JOINT RThumb
								{
									OFFSET 0.000000 0.000000 0.000000
									CHANNELS 3 Zrotation Yrotation Xrotation
									End Site
									{
										OFFSET 0.000000 0.000000 0.000000
									}
								}
							}
						}
					}
				}
			}
		}
	}
}
MOTION
Frames: 4
Frame Time: 0.008333
-8.171105 17.493010 -0.896796 43.985050 87.000359 79.545772 -12.008096 1.196223 -2.926892 -9.222124 5.027845 -23.647783 -1.237012 1.261844 27.029336 0.814233 3.592700 13.726373 1.120600 0.000000 -64.551900 7.142652 0.586651 2.932284 6.945522 8.487592 -51.700962 3.480096 1.404670 7.560142 -0.831443 -2.011592 -5.415636 -0.709800 0.000001 -54.567700 5.439811 -3.084065 3.811642 0.686324 -3.170624 -2.326361 -5.492076 -3.288514 -0.764199 9.948572 4.904778 4.537751 -3.043664 -0.322559 2.985206 0.000000 0.000000 0.000000 -4.466202 -7.775422 -1.723381 -88.367186 -42.969561 39.344060 -0.947393 -72.560606 -0.035276 5.192235 -8.874950 -0.446079 -0.151425 0.705660 -0.000000 0.000000 0.000000 0.000000 0.000000 0.000000 0.000000 14.083245 2.824492 3.920676 47.681591 5.555893 -20.284940 2.844823 6.383111 -0.000803 -1.398775 1.056407 -0.015287 0.101216 -0.118620 -0.000000 0.000000 0.000000 0.000000 0.000000 0.000000 0.000000 
-7.942951 17.498179 -0.853720 48.411312 86.896152 83.821477 -12.077018 1.263201 -3.029463 -9.119099 5.538596 -23.027068 -1.190610 1.287317 27.224905 0.881729 4.002913 14.542896 1.281400 0.000000 -62.360200 7.100594 0.579366 3.056486 7.234054 8.466888 -51.612005 3.590142 1.673523 5.672317 -0.742994 -1.782683 -4.986000 -0.725500 0.000000 -56.573500 5.603160 -3.250473 3.790638 0.746832 -3.342609 -2.333111 -5.409332 -3.462035 -0.784202 9.829272 4.634884 4.503512 -3.015094 -0.320939 2.981381 0.000000 0.000000 0.000000 -4.083523 -7.927500 -1.853460 -88.520633 -43.529670 39.625100 -0.866970 -74.097952 -0.032664 4.820430 -9.058256 -0.423020 -0.144698 0.723242 -0.000000 0.000000 0.000000 0.000000 0.000000 0.000000 0.000000 13.766108 2.523901 4.001247 47.125440 5.404524 -20.528431 2.823271 6.259548 -0.001375 -1.543161 0.923829 -0.014891 0.102225 -0.120299 -0.000000 0.000000 0.000000 0.000000 0.000000 0.000000 0.000000 
-7.715182 17.491246 -0.809734 52.429511 86.773043 87.644123 -12.129607 1.331586 -3.127622 -9.014784 6.029115 -22.431629 -1.138766 1.316866 27.626971 0.973273 4.712503 15.028711 1.544200 0.000000 -60.026600 7.069462 0.572972 3.139924 7.616616 8.373803 -51.531448 3.687773 1.894465 4.174165 -0.688832 -1.650445 -4.728278 -0.736100 -0.000000 -58.271100 5.750823 -3.403817 3.794853 0.802105 -3.499703 -2.333646 -5.326123 -3.620100 -0.798935 9.712399 4.341485 4.462974 -2.985054 -0.319174 2.975331 0.000000 0.000000 0.000000 -3.716629 -8.068240 -1.980007 -88.615754 -44.071823 39.841003 -0.787714 -75.516923 -0.030707 4.529629 -9.171545 -0.402873 -0.139138 0.738162 -0.000000 0.000000 0.000000 0.000000 0.000000 0.000000 0.000000 13.441408 2.205473 4.071067 46.594887 5.268007 -20.690163 2.804288 6.178780 -0.001881 -1.717728 0.869423 -0.015695 0.103455 -0.122105 -0.000000 0.000000 0.000000 0.000000 0.000000 0.000000 0.000000 
-7.487681 17.471795 -0.764678 55.974393 86.631366 90.959581 -12.167901 1.400200 -3.220721 -8.907953 6.498833 -21.872818 -1.081936 1.350892 28.231552 1.087756 5.703757 15.201385 1.902100 -0.000000 -57.622199 7.048227 0.560848 3.192131 8.071657 8.237092 -51.474608 3.771576 2.062816 3.073479 -0.665399 -1.614888 -4.588018 -0.748900 -0.000000 -59.544300 5.879281 -3.543036 3.813485 0.851777 -3.641369 -2.330050 -5.242693 -3.762177 -0.807279 9.597716 4.019687 4.412599 -2.953682 -0.317263 2.966261 0.000000 0.000000 0.000000 -3.363782 -8.189767 -2.102948 -88.660764 -44.592721 39.998117 -0.711537 -76.810478 -0.029428 4.317836 -9.215915 -0.386234 -0.134832 0.750320 -0.000000 0.000000 0.000000 0.000000 0.000000 0.000000 0.000000 13.109157 1.866046 4.129956 46.093368 5.144543 -20.785401 2.789272 6.149048 -0.002294 -1.900845 0.881655 -0.017498 0.104834 -0.123978 -0.000000 0.000000 0.000000 0.000000 0.000000 0.000000 0.000000 
